<svg width="16" height="16" viewBox="0 0 160 160" xmlns="http://www.w3.org/2000/svg">
<path stroke="null" id="svg_100" d="m86.16001,43.81955c0,-23.05098 14.87392,-41.05955 36.30987,-41.05955a65.44936,68.97284 0 0 1 20.56101,3.68816c0,4.8299 0.33357,9.6598 0.70952,15.10271c0.054,0.79238 0.11005,1.59628 0.16542,2.41603l-4.37468,0c0,-8.75937 -6.99949,-16.13568 -15.72152,-16.13568l-1.33975,0c-15.72152,0 -25.81064,14.2916 -25.81064,34.57646s10.06177,34.57646 25.81064,34.57646c4.78481,0.46102 9.6243,-0.92204 13.99899,-2.76612l0,-13.83059c0,-7.37631 -1.74988,-9.22039 -4.78481,-9.68141l-4.37468,-0.92204l0,-3.68816c1.24269,0 2.70205,0.07564 4.43551,0.16568c2.538,0.13254 5.66453,0.29534 9.56347,0.29534c5.24962,0 9.18683,0 11.81165,-0.46102l0,3.75299l-3.49975,0.92204c-3.49975,0.92204 -4.37468,2.76612 -4.37468,9.68141l0,18.00857a74.9561,78.99137 0 0 1 -24.06076,4.14918c-22.33823,-0.06483 -35.02481,-15.73949 -35.02481,-38.79047l-0.00001,0.00001z"/>
<path stroke="null" id="svg_1" d="m45.48,110.8c7.04,14 16,26.84 25.6,39a28.312,28.312 0 0 0 23.08,9.64c2.52,0 5.08,0 7,-1.28l0,-4.48a25.43,25.43 0 0 1 -16.64,-9c-9.6,-11.48 -18.6,-23.68 -25.6,-36.48a30.64,30.64 0 0 0 24.32,-28.8c0,-19.16 -14.72,-28.16 -33.92,-28.16c-5.605,0 -10.648,0.192 -15.212,0.365c-3.773,0.144 -7.22,0.275 -10.388,0.275l-17.92,0l0,5.12l6.4,1.28c4.44,0.64 7,2.56 7,13.44l0,67.85c0,10.24 -2.52,12.8 -7,13.44l-6.4,1.28l0,5.15c4.48,-0.64 12.8,-0.64 20.48,-0.64c4.354,0 9.325,0.206 13.631,0.384c3.289,0.136 6.189,0.256 8.129,0.256l0,-5.12l-9,-1.28c-4.44,-0.64 -7,-3.2 -7,-13.44l0,-28.8l13.44,0zm0.68,-51.24c14.68,0 23,7.68 23,21.12c0,13.44 -9.6,22.4 -24.96,22.4c-5.76,0 -8.32,0 -12.16,-0.64l0,-42.88l14.12,0z"/>
</svg>