<svg xmlns="http://www.w3.org/2000/svg" viewBox="0 0 961 124"><symbol id="logo" viewBox="0 0 961 124" xmlns="http://www.w3.org/2000/svg"><path d="m556.16 115.24-5.76.64.6 3.84c4.48-.64 10.88-.64 17.28-.64 3.485 0 7.159.19 10.506.363 2.801.144 5.373.277 7.414.277v-4.48l-5.76-.64c-3.84-.64-5.76-1.28-5.76-13.44V51.88a36.551 36.551 0 0 1 19.84-6.4c14.72 0 17.92 8.32 17.92 21.12v35.2c0 11.52-1.92 12.8-5.76 13.44l-5.76.64v4.48c4.48-.64 10.88-.64 17.28-.64 3.485 0 7.159.19 10.506.363 2.801.144 5.373.277 7.414.277v-4.48l-5.76-.64c-3.84-.64-5.76-1.28-5.76-13.44V64.68c0-16.64-5.76-28.8-25.6-28.8a38.72 38.72 0 0 0-24.28 10.84V0c-7.68 3.88-15.36 6.44-23.68 9v4.48c10.88 1.92 10.88 3.8 10.88 12.8v75.52c0 11.52-1.92 12.8-5.76 13.44ZM39.68 73.04c7.04 14 16 26.84 25.6 39a28.312 28.312 0 0 0 23.08 9.64c2.52 0 5.08 0 7-1.28v-4.48a25.43 25.43 0 0 1-16.64-9c-9.6-11.48-18.6-23.68-25.6-36.48a30.64 30.64 0 0 0 24.32-28.8c0-19.16-14.72-28.16-33.92-28.16-5.605 0-10.648.192-15.212.365-3.773.144-7.22.275-10.388.275H0v5.12l6.4 1.28c4.44.64 7 2.56 7 13.44v67.85c0 10.24-2.52 12.8-7 13.44L0 116.53v5.15c4.48-.64 12.8-.64 20.48-.64 4.354 0 9.325.206 13.631.384 3.289.136 6.189.256 8.129.256v-5.12l-9-1.28c-4.44-.64-7-3.2-7-13.44v-28.8h13.44Zm.68-51.24c14.68 0 23 7.68 23 21.12 0 13.44-9.6 22.4-24.96 22.4-5.76 0-8.32 0-12.16-.64V21.8h14.12Zm95.96 14.08c-22.4 0-37.76 18.56-37.76 44.8 0 25.6 13.44 42.24 39.08 41.64 12.16 0 23.04-5.12 26.24-10.24l-.64-4.48c-7.04 3.84-14.72 5.12-22.4 5.12-19.16 0-28.16-15.36-28.16-33.92v-5.12h55v-9a30.083 30.083 0 0 0-31.36-28.8Zm17.92 27.52c0 2.56-.64 3.84-3.84 3.84h-37.08c1.24-11.52 8.92-24.32 23-24.32h1.28c10.24 1.28 17.92 10.24 16.64 20.48Zm27.52 55.68c0-7.68 0-14.72-.64-22.4h6.4c1.28 12.16 5.12 18.56 19.84 18.56 10.88 0 17.92-5.76 17.92-15.36 0-9.574-8.811-12.703-18.445-16.126-11.619-4.127-24.435-8.68-24.435-25.474 0-13.44 12.16-22.4 28.8-22.4 7.68 0 15.36 1.92 22.4 4.48v19.17h-6.4a16.16 16.16 0 0 0-13.44-17.28h-3.84c-10.24 0-16.64 4.48-16.64 12.8 0 8.84 8.513 12.09 17.953 15.693 11.746 4.483 24.927 9.515 24.927 26.547 0 13.44-12.8 25-29.44 25a67.085 67.085 0 0 1-24.96-3.21Zm107.52-83.2c-22.4 0-37.76 18.56-37.76 44.8 0 25.6 13.48 42.24 39.08 41.64 12.16 0 23.04-5.12 26.24-10.24l-.64-4.48c-7.04 3.84-14.72 5.12-22.4 5.12-19.16 0-28.16-15.36-28.16-33.92v-5.12h55v-9a30.083 30.083 0 0 0-31.36-28.8Zm17.28 27.52c0 2.56-.64 3.84-3.84 3.84h-37.08c1.24-11.52 8.92-24.32 23-24.32h1.28c10.24 1.28 17.92 10.24 16.64 20.48Zm23.68 38.4c0-16 14.08-26.24 35.84-26.24h9v-9.6c0-13.44-5.76-19.84-19.2-19.84-6.4 0-13.44 1.28-19.2 4.48l-.64-5.76c6.4-5.76 14.72-9.6 23.68-9.6 19.2 0 28.8 10.88 28.8 26.88 0 6.493-.149 12.836-.304 19.39v.013c-.165 7.01-.336 14.262-.336 22.197 0 8.32 3.2 10.88 13.44 10.88v4.48a29.131 29.131 0 0 1-12.8 3.2 10.925 10.925 0 0 1-8.077-2.27 10.925 10.925 0 0 1-4.083-7.33v-1.92a27.88 27.88 0 0 1-22.4 11.52c-11.52.64-23.08-8.96-23.72-20.48Zm44.16 3.2v-.002c0-5.76 0-18.558.64-22.398h-6.4c-17.28 0-25.6 6.4-25.6 16.64a13.288 13.288 0 0 0 12.16 13.44h1.28c7.04 0 13.44-2.56 17.92-7.68Zm44.8 10.24-5.76.64.64 3.81c2.041 0 4.48-.133 7.136-.277 3.175-.173 6.659-.363 10.144-.363 3.484 0 7.728.19 11.594.363 3.234.144 6.205.277 8.246.277v-4.48l-7.68-.64c-3.84-.64-5.76-1.28-5.76-13.44v-48a30.58 30.58 0 0 1 17.92-6.4 16.78 16.78 0 0 1 9.6 1.28l1.28-11.52a32.129 32.129 0 0 0-7.68-1.28 33.94 33.94 0 0 0-21.12 12.16v-12.8c-7.68 3.2-15.36 6.4-23.68 8.32v3.84c10.88 1.92 10.88 4.48 10.88 12.8v42.27c0 11.52-1.92 12.8-5.76 13.44ZM473 80.68c0-25.6 18.56-44.8 41-44.8a65.917 65.917 0 0 1 22.4 3.84c-.64 5.76-.64 14.08-.64 19.2h-6.4c-.64-9.6-4.48-16-16.64-16-14.72 0-26.88 12.8-26.88 35.84 0 23.04 12.16 33.92 30.08 33.92a41.57 41.57 0 0 0 19.76-5.15l.64 4.48a29.424 29.424 0 0 1-25 10.88c-23.64.03-38.32-16.61-38.32-42.21Zm174.68-11.52c0-32 21.76-57 53.12-57a95.75 95.75 0 0 1 30.08 5.12c0 6.705.488 13.41 1.038 20.966.079 1.1.161 2.216.242 3.354h-6.4c0-12.16-10.24-22.4-23-22.4h-1.96c-23 0-37.76 19.84-37.76 48s14.72 48 37.76 48c7 .64 14.08-1.28 20.48-3.84v-19.2c0-10.24-2.56-12.8-7-13.44l-6.4-1.28v-5.12c1.818 0 3.953.105 6.489.23 3.713.184 8.287.41 13.991.41 7.68 0 13.44 0 17.28-.64v5.21l-5.12 1.28c-5.12 1.28-6.4 3.84-6.4 13.44v25a109.658 109.658 0 0 1-35.2 5.76c-32.68-.09-51.24-21.85-51.24-53.85Z"/><path d="M791.04 75.56c-21.76 0-35.84 10.24-35.84 26.24 0 .64 0 1.28.68 1.28.64 11.52 10.88 19.84 22.4 19.2a27.887 27.887 0 0 0 22.4-11.52v1.92c1.28 6.4 6.4 10.24 12.8 9.6a29.131 29.131 0 0 0 12.8-3.2v-4.48c-10.24 0-13.44-2.56-13.44-10.88 0-7.936.171-15.19.336-22.2.155-6.558.304-12.904.304-19.4 0-16-9.6-26.88-28.8-26.88-8.96 0-17.28 3.84-23.68 9.6l.64 5.76c5.76-3.2 12.8-4.48 19.2-4.48 13.44 0 19.2 6.4 19.2 19.84v9.6h-9Zm9.6 7.04C800 86.44 800 99.24 800 105a25.28 25.28 0 0 1-17.92 7.68h-1.28a13.291 13.291 0 0 1-12.16-13.44c0-10.24 8.32-16.64 25.6-16.64h6.4Zm44.8 19.84V45.53H835.2v-5.76a32.288 32.288 0 0 0 17.28-22.4h5.76v19.84h25v8.32h-25v54.4c0 10.24 3.2 14.72 11.52 14.72 4.132.039 8.241-.61 12.16-1.92l.64 3.2a22.785 22.785 0 0 1-18.56 7c-14.08-.01-18.56-6.4-18.56-20.49Zm83.2-66.56c-22.4 0-37.76 18.56-37.76 44.8 0 25.6 13.44 42.24 38.44 41.6 12.16 0 23.04-5.12 26.24-10.24l-.64-4.48c-7.04 3.84-14.72 5.12-22.4 5.12-19.16 0-28.16-15.36-28.16-33.92v-5.12h55c.528-1.872.744-3.818.64-5.76v-2.56c-.64-16.64-14.72-30.08-31.36-29.44Zm17.28 27.52c0 2.56-1.28 3.84-3.84 3.84H905c1.24-11.52 8.92-24.32 23-24.32h1.28c10.24 1.28 17.92 10.24 16.64 20.48Z" class="letter"/></symbol><symbol id="initials" viewBox="0 0 191 207" xmlns="http://www.w3.org/2000/svg"><svg><path d="M160.2.25c14.25 0 23.75 7.65 28.1 18.2l-11.5 4.7c-2.75-7.2-8.45-11.35-16.6-11.35a16.757 16.757 0 0 0-12.3 5.25c-4.05 4.5-5.05 9.3-5.05 26.25s.95 21.85 5.05 26.35a16.565 16.565 0 0 0 12.3 5.1 17.637 17.637 0 0 0 13.6-5.95c3.05-3.55 4.2-7.85 4.2-13.3v-4.75h-16.2V39.8h28.9v12.95c0 10.9-2 17.9-7.5 23.9-6.35 6.75-14.2 9.6-23 9.6a30.15 30.15 0 0 1-21.9-9.05c-8.102-8.2-8.101-17.426-8.1-33.368v-1.164c-.001-15.943-.002-25.217 8.1-33.418a29.476 29.476 0 0 1 21.9-9Z"/><path class="path" d="M58 136a367.779 367.779 0 0 0 37.05 56.45 42.095 42.095 0 0 0 14.767 10.758 42.091 42.091 0 0 0 17.933 3.492 31.635 31.635 0 0 0 11.4-1.95v-6.4A36.222 36.222 0 0 1 115 185.3 294.636 294.636 0 0 1 78 133a45.286 45.286 0 0 0 34.7-42.1c0-27.65-21.75-40.45-49.55-40.45-8.04 0-15.433.226-22.104.43-5.484.167-10.48.32-14.946.32H.15v7.2l9.25 1.65c6.45 1.2 10.15 3.9 10.45 19.55v97.6c0 15.3-3.7 18.25-10.1 19.45L.5 198.4v7.15c6.65-.3 18.65-.75 29.8-.75 6.41 0 13.876.248 20.225.459 4.697.155 8.781.291 11.375.291v-7.15l-12.8-1.75c-6.7-.95-10.2-4.15-10.2-19.45V136H58Zm.6-74.25c20.75 0 33.05 10.85 33.05 30.55 0 19.45-13.35 32.6-35.25 32.15-8.237 0-11.787-.278-17.177-.701l-.623-.049V61.75h20Z"/></svg></symbol><use href="#logo"/></svg>